#!OML:ASF E:\emotionWalksFemale\Project 1\Capture day 1\Session 1\Female1.ASF
:FULLY-SPECIFIED
:DEGREES
1360
root 10.0768 15.0895 -8.16918 179.26 -167.041 -183.331
lowerback 4.78358 4.97201 4.87111
upperback -3.66559 7.08691 1.12468
thorax -6.05923 3.31321 -2.21
lowerneck -0.624227 -3.10487 -6.81004
upperneck 9.44352 -4.25685 3.89633
head 3.45423 -2.2208 2.35755
rclavicle -1.63128e-014 -1.35174e-014
rhumerus -7.81196 25.5659 -71.7271
rradius 39.9178
rwrist 22.3443
rhand -6.11906 308.244
rfingers 7.12502
rthumb 19.7179 -440.776
lclavicle -1.63128e-014 -1.35174e-014
lhumerus -77.5393 -0.197846 74.4538
lradius 29.5808
lwrist -22.8183
lhand 20.3059 -32.2729
lfingers 7.12502
lthumb 44.82 -8.70274
rfemur 24.8742 11.563 36.6443
rtibia 1.27222e-014
rfoot -17.2951 -23.1278
rtoes -6.4159
lfemur -34.0326 -8.59891 -16.1092
ltibia 35.6269
lfoot -24.1294 14.4655
ltoes -32.4843
1361
root 10.0825 15.0512 -7.97281 179.246 -167.394 -183.409
lowerback 4.47262 4.93429 5.46883
upperback -3.87895 7.06646 1.08926
thorax -6.03699 3.27396 -2.54855
lowerneck 0.330978 -3.11259 -6.83933
upperneck 9.51792 -4.3318 3.90492
head 3.30516 -2.26898 2.37315
rclavicle 2.06363e-014 -9.93923e-017
rhumerus -5.83359 26.5575 -70.5342
rradius 40.3187
rwrist 22.0971
rhand -5.4217 306.542
rfingers 7.12502
rthumb 20.3882 -442.407
lclavicle 2.06363e-014 -9.93923e-017
lhumerus -76.8869 0.0309141 71.5733
lradius 29.0372
lwrist -24.1491
lhand 21.1692 -32.8352
lfingers 7.12502
lthumb 45.6226 -9.58516
rfemur 25.6869 10.7903 36.4215
rtibia -2.54444e-014
rfoot -17.5645 -22.4753
rtoes -7.26929
lfemur -33.8419 -9.68555 -16.0097
ltibia 34.4002
lfoot -24.2114 14.7942
ltoes -30.3681
1362
root 10.086 15.0176 -7.767 179.159 -167.691 -183.399
lowerback 3.9581 4.90942 5.8774
upperback -4.00633 7.02842 1.09197
thorax -5.83542 3.24339 -2.71878
lowerneck 0.801306 -3.16124 -6.65869
upperneck 10.0043 -4.41466 3.59398
head 3.37319 -2.32272 2.23721
rclavicle 3.5334e-014 -3.27995e-015
rhumerus -3.67511 27.7175 -69.1508
rradius 40.472
rwrist 21.7928
rhand -7.43005 307.691
rfingers 7.12502
rthumb 18.4572 -441.453
lclavicle 3.5334e-014 -3.27995e-015
lhumerus -75.9346 0.644352 68.3893
lradius 28.3122
lwrist -26.0498
lhand 21.91 -33.5622
lfingers 7.12502
lthumb 46.31 -10.5979
rfemur 26.571 10.0655 36.1113
rtibia -8.26944e-014
rfoot -17.5322 -21.9305
rtoes -9.02962
lfemur -33.375 -10.6814 -16.0412
ltibia 33.4871
lfoot -24.3589 15.1356
ltoes -28.0656
1363
root 10.0842 14.9866 -7.55353 179.005 -167.729 -183.364
lowerback 3.42064 4.8963 6.04013
upperback -4.09432 6.99007 1.2417
thorax -5.62568 3.22776 -2.6009
lowerneck 0.834571 -3.14605 -6.53927
upperneck 10.8783 -4.36603 3.07912
head 3.64781 -2.32078 2.04317
rclavicle -1.77912e-014 1.07344e-014
rhumerus -1.39547 29.0327 -67.5613
rradius 40.6242
rwrist 21.4986
rhand -8.39341 307.7
rfingers 7.12502
rthumb 17.5303 -441.529
lclavicle -1.77912e-014 1.07344e-014
lhumerus -75.0895 1.59044 65.3901
lradius 27.7605
lwrist -27.8151
lhand 23.5684 -33.8404
lfingers 7.12502
lthumb 47.8436 -11.555
rfemur 27.5514 9.57799 35.8001
rtibia 1.27222e-014
rfoot -17.2395 -21.388
rtoes -10.6692
lfemur -32.6533 -11.3856 -16.1311
ltibia 32.9728
lfoot -23.8133 15.6932
ltoes -28.4881
1364
root 10.0801 14.9616 -7.34234 178.767 -167.574 -183.34
lowerback 3.08881 4.91779 6.18649
upperback -4.26292 7.01583 1.38754
thorax -5.61551 3.23496 -2.50764
lowerneck 0.974764 -3.10888 -6.32049
upperneck 11.792 -4.28854 2.53531
head 3.91433 -2.30473 1.82305
rclavicle -4.26393e-014 -2.14687e-014
rhumerus 0.638643 30.0378 -66.1329
rradius 40.8025
rwrist 21.3433
rhand -9.45011 308.62
rfingers 7.12502
rthumb 16.5131 -440.697
lclavicle -4.26393e-014 -2.14687e-014
lhumerus -74.5667 2.34351 62.7215
lradius 27.5287
lwrist -29.0368
lhand 21.4833 -32.2609
lfingers 7.12502
lthumb 45.9143 -9.1308
rfemur 28.628 9.25699 35.5275
rtibia 6.36111e-015
rfoot -16.5968 -20.6941
rtoes -10.4689
lfemur -31.6968 -11.6447 -16.376
ltibia 32.9042
lfoot -22.4735 16.3702
ltoes -30.529
1365
root 10.0772 14.9409 -7.12923 178.487 -167.345 -183.316
lowerback 2.81763 4.99269 6.4569
upperback -4.53874 7.12208 1.3814
thorax -5.71434 3.26651 -2.65365
lowerneck 1.42459 -3.05575 -5.87904
upperneck 12.6681 -4.22745 2.17869
head 4.11133 -2.28184 1.62929
rclavicle 4.3186e-014 2.82274e-014
rhumerus 2.1813 30.5985 -65.1798
rradius 40.8741
rwrist 21.4805
rhand -10.5171 309.445
rfingers 7.12502
rthumb 15.4856 -439.954
lclavicle 4.3186e-014 2.82274e-014
lhumerus -73.9799 2.93296 60.0178
lradius 27.3087
lwrist -30.111
lhand 19.6528 -30.3481
lfingers 7.12502
lthumb 44.2115 -6.54455
rfemur 29.7416 9.00122 35.2627
rtibia -6.67916e-014
rfoot -15.2999 -20.0352
rtoes -9.98922
lfemur -30.6145 -11.2988 -16.8881
ltibia 33.2248
lfoot -20.2419 16.9371
ltoes -33.1838
1366
root 10.0755 14.9403 -6.90985 178.256 -166.874 -183.453
lowerback 2.50644 5.10317 6.89653
upperback -4.82033 7.28087 1.39038
thorax -5.77459 3.317 -2.87298
lowerneck 1.83111 -2.93468 -5.53735
upperneck 13.4995 -4.09884 2.13138
head 4.31476 -2.21592 1.56078
rclavicle 5.43676e-014 -1.17283e-014
rhumerus 3.41289 30.6295 -64.7428
rradius 40.7695
rwrist 22.0159
rhand -11.4455 309.939
rfingers 7.12502
rthumb 14.5913 -439.528
lclavicle 5.43676e-014 -1.17283e-014
lhumerus -73.2693 3.67305 57.3784
lradius 27.1417
lwrist -30.9948
lhand 16.6426 -29.3976
lfingers 7.12502
lthumb 41.3955 -4.60821
rfemur 30.8144 8.98605 35.1599
rtibia -5.08889e-014
rfoot -13.942 -19.3406
rtoes -12.3487
lfemur -29.5839 -10.2872 -17.3228
ltibia 33.8207
lfoot -17.7869 16.7499
ltoes -32.2361
1367
root 10.0772 14.9659 -6.68626 178.098 -166.239 -183.707
lowerback 2.10887 5.16307 7.45481
upperback -4.98181 7.36525 1.51641
thorax -5.66586 3.33658 -3.01442
lowerneck 1.66391 -2.75109 -5.44822
upperneck 14.4422 -3.86355 2.20489
head 4.6831 -2.10168 1.57705
rclavicle -2.99668e-014 -3.598e-014
rhumerus 4.73554 30.2247 -64.5875
rradius 40.5726
rwrist 22.8393
rhand -11.7987 309.863
rfingers 7.12502
rthumb 14.2509 -439.628
lclavicle -2.99668e-014 -3.598e-014
lhumerus -72.6674 4.78022 54.8947
lradius 27.1254
lwrist -31.6954
lhand 12.5907 -29.9677
lfingers 7.12502
lthumb 37.5792 -4.05517
rfemur 31.8018 9.15197 35.147
rtibia -4.77083e-014
rfoot -12.8092 -18.4075
rtoes -16.0401
lfemur -28.7345 -8.99186 -17.552
ltibia 34.4749
lfoot -15.7088 15.9417
ltoes -26.3189
1368
root 10.0843 14.996 -6.46335 177.817 -165.63 -183.754
lowerback 1.83694 5.20468 8.01817
upperback -5.11531 7.42417 1.48013
thorax -5.57924 3.33871 -3.33501
lowerneck 1.29943 -2.60712 -5.16739
upperneck 15.9772 -3.68932 2.25773
head 4.71801 -1.99557 1.41425
rclavicle -1.10325e-014 -5.96354e-016
rhumerus 5.71647 29.3011 -64.978
rradius 40.3361
rwrist 23.6715
rhand -12.6081 309.523
rfingers 7.12502
rthumb 13.471 -440.021
lclavicle -1.10325e-014 -5.96354e-016
lhumerus -72.0586 5.69165 52.8015
lradius 27.3293
lwrist -31.8594
lhand 9.19424 -30.4002
lfingers 7.12502
lthumb 34.3617 -3.69743
rfemur 32.823 9.3082 34.8882
rtibia 5.725e-014
rfoot -11.0942 -17.3702
rtoes -17.7725
lfemur -27.8338 -7.88811 -17.9221
ltibia 34.9433
lfoot -14.0063 15.9245
ltoes -23.3211
1369
root 10.0912 15.0236 -6.24901 177.333 -165.117 -183.322
lowerback 1.76258 5.29469 8.25674
upperback -5.28542 7.54093 1.1595
thorax -5.63522 3.37027 -3.79938
lowerneck 1.09496 -2.58686 -4.55814
upperneck 17.0761 -3.65085 1.97707
head 5.07281 -1.96321 1.22178
rclavicle -2.14687e-014 -3.69739e-014
rhumerus 6.00115 27.7631 -65.9004
rradius 40.182
rwrist 24.4716
rhand -14.0377 309.457
rfingers 7.12502
rthumb 12.0928 -440.174
lclavicle -2.14687e-014 -3.69739e-014
lhumerus -71.1032 6.22563 51.0829
lradius 27.5354
lwrist -31.8241
lhand 6.51459 -29.9453
lfingers 7.12502
lthumb 31.8135 -2.70211
rfemur 33.876 9.3977 34.1325
rtibia -4.77083e-014
rfoot -8.70239 -16.454
rtoes -18.0261
lfemur -26.6847 -6.9751 -18.7495
ltibia 35.0987
lfoot -13.0692 16.4987
ltoes -25.1238
